<?xml version="1.0" encoding="UTF-8" standalone="no"?>
<!DOCTYPE svg PUBLIC "-//W3C//DTD SVG 1.1//EN" "http://www.w3.org/Graphics/SVG/1.1/DTD/svg11.dtd">
<svg width="100%" height="100%" viewBox="0 0 24 24" version="1.1" xmlns="http://www.w3.org/2000/svg" xmlns:xlink="http://www.w3.org/1999/xlink" xml:space="preserve" xmlns:serif="http://www.serif.com/" style="fill-rule:evenodd;clip-rule:evenodd;stroke-linecap:square;stroke-miterlimit:2;">
    <g id="CustomSupportCylinderIcon" transform="matrix(1,0,0,1,-0.157147,0)">
        <path d="M11.926,0.219C9.963,0.236 8.2,0.48 6.887,0.883C6.23,1.084 5.684,1.321 5.268,1.621C4.851,1.921 4.522,2.327 4.521,2.836L4.521,2.838C4.551,9.083 4.539,15.49 4.529,21.121L4.529,21.135C4.544,21.654 4.886,22.062 5.32,22.367C5.754,22.673 6.321,22.914 7,23.117C8.359,23.524 10.173,23.764 12.172,23.762C14.172,23.759 15.979,23.515 17.328,23.104C18.003,22.898 18.564,22.654 18.992,22.346C19.42,22.037 19.755,21.621 19.754,21.102C19.872,14.85 19.676,8.431 19.76,2.844L19.76,2.834C19.759,2.315 19.417,1.906 18.986,1.604C18.556,1.301 17.992,1.061 17.314,0.859C15.96,0.457 14.147,0.219 12.143,0.219C12.071,0.218 12,0.218 11.928,0.219L11.926,0.219ZM12.104,1.637C12.146,1.637 12.186,1.637 12.229,1.637L12.231,1.637C13.89,1.637 15.394,1.811 16.445,2.08C16.971,2.214 17.384,2.378 17.625,2.523C17.867,2.669 17.865,2.753 17.865,2.705C17.865,2.657 17.866,2.741 17.625,2.887C17.384,3.033 16.971,3.196 16.445,3.33C15.394,3.599 13.89,3.773 12.231,3.773C10.571,3.773 9.067,3.599 8.016,3.33C7.49,3.196 7.077,3.033 6.836,2.887C6.594,2.741 6.596,2.657 6.596,2.705C6.596,2.752 6.593,2.673 6.826,2.529C7.059,2.386 7.46,2.226 7.973,2.092C8.998,1.824 10.469,1.645 12.104,1.637Z" style="fill-rule:nonzero;"/>
    </g>
    <g transform="matrix(1,0,0,1,-0.16214,0)">
        <path d="M4.819,6.918L0.731,22.632L6.816,22.632" style="fill:none;stroke:black;stroke-width:0.8px;"/>
    </g>
    <g transform="matrix(-1,0,0,1,24.1258,0)">
        <path d="M4.819,6.918L0.731,22.632L6.816,22.632" style="fill:none;stroke:black;stroke-width:0.8px;"/>
    </g>
    <g transform="matrix(1,0,0,1,-0.16214,0)">
        <path d="M0.731,22.632L4.521,19.335L6.816,22.632L0.731,22.632Z"/>
    </g>
    <g transform="matrix(-1,0,0,1,24.1258,0)">
        <path d="M0.731,22.632L4.521,19.335L6.816,22.632L0.731,22.632Z"/>
    </g>
</svg>
