<?xml version="1.0" encoding="UTF-8" standalone="no"?>
<!DOCTYPE svg PUBLIC "-//W3C//DTD SVG 1.1//EN" "http://www.w3.org/Graphics/SVG/1.1/DTD/svg11.dtd">
<svg width="100%" height="100%" viewBox="0 0 1182 1182" version="1.1" xmlns="http://www.w3.org/2000/svg" xmlns:xlink="http://www.w3.org/1999/xlink" xml:space="preserve" xmlns:serif="http://www.serif.com/" style="fill-rule:evenodd;clip-rule:evenodd;stroke-linejoin:round;stroke-miterlimit:2;">
    <g transform="matrix(1.12809,-0.30227,0.30227,1.12809,-266.41,119.743)">
        <path d="M363.692,272.37L359.749,56.045L468.268,56.045C468.268,56.045 468.151,102.535 522.128,102.436C594.802,102.303 737.596,102.539 737.596,102.539C737.596,102.539 879.894,113.843 988.279,201.615C1096.66,289.388 1055.77,317.202 1055.77,317.202C1023.85,224.409 921.034,234.651 904.15,235.007C879.641,220.729 766.854,220.899 766.854,220.899L724.869,220.761C697.6,529.662 733.522,1086.02 725.906,1093.78C719.174,1100.65 595.534,1098.73 590.551,1093.88C585.358,1088.82 633.628,530.701 611.829,220.899C611.829,220.899 560.465,221.818 520.798,220.899C478.246,220.899 476.912,272.067 476.912,272.067L363.692,272.37ZM385.681,86.768L390.421,243.889L456.122,244.909C456.122,244.909 480.173,195.123 516.796,195.123C553.418,195.123 622.081,197.112 622.081,197.112L711.541,128.662C711.541,128.662 520.375,126.446 514.797,126.299C447.686,124.534 442.977,87.949 442.977,87.949L385.681,86.768ZM629.266,944.588C720.667,737.325 670.13,515.845 694.42,220.899L648.417,220.899C648.417,220.899 643.686,796.386 629.266,944.588Z"/>
    </g>
</svg>
