<?xml version="1.0" encoding="UTF-8" standalone="no"?>
<!DOCTYPE svg PUBLIC "-//W3C//DTD SVG 1.1//EN" "http://www.w3.org/Graphics/SVG/1.1/DTD/svg11.dtd">
<svg width="100%" height="100%" viewBox="0 0 1600 1601" version="1.1" xmlns="http://www.w3.org/2000/svg" xmlns:xlink="http://www.w3.org/1999/xlink" xml:space="preserve" xmlns:serif="http://www.serif.com/" style="fill-rule:evenodd;clip-rule:evenodd;stroke-linejoin:round;stroke-miterlimit:2;">
    <g id="g1110" transform="matrix(1.33333,0,0,1.33333,1382.92,844.227)">
        <g id="Layer-1" serif:id="Layer 1">
            <g id="g11101" serif:id="g1110">
                <path d="M-815.661,100.792L-937.677,43.045L-573.688,-454.992L-458.797,-394.172L-815.661,100.792Z" style="fill:none;stroke:black;stroke-width:20px;"/>
                <path d="M-901.064,371.508C-912.121,366.38 -1015.42,316.528 -1015.42,316.528L-937.677,43.045L-815.661,100.792L-886.903,377.996C-886.903,377.996 -893.639,374.951 -901.064,371.508Z" style="fill:none;stroke:black;stroke-width:20px;"/>
                <path d="M-815.564,392.023C-862.229,389.174 -897.493,380.516 -918.689,366.705L-928.856,360.084L-914.291,365.189C-914.291,365.189 -907.759,368.445 -900.359,371.834L-886.903,377.996L-774.359,352.293C-712.459,338.157 -661.641,326.332 -661.43,326.016C-659.833,323.632 -650.531,332.678 -647.482,339.58L-644.334,346.705L-648.143,354.034L-651.953,361.363L-662.884,368.014C-684.741,381.313 -722.919,390.203 -766.064,392.042C-776.377,392.481 -786.671,392.966 -788.939,393.119C-791.208,393.272 -803.189,392.779 -815.564,392.023Z" style="fill:none;stroke:black;stroke-width:20px;"/>
                <g transform="matrix(0.75,0,0,0.75,-989.339,-613.82)">
                    <path d="M1284.2,1099.52C1227.44,1096.11 1201.7,1083.92 1201.7,1083.92L1338.55,1047.78C1420.83,1028.97 1487.08,1006.61 1487.08,1006.61C1487.08,1006.61 1487.69,1006.44 1497.87,1013.44L1508.44,1020.7L1512.53,1030.11L1516.63,1039.51L1511.5,1049.11L1506.38,1058.7L1492.34,1067.41C1452.14,1092.34 1371.54,1104.77 1284.2,1099.52Z" style="fill:none;stroke:black;stroke-width:26.67px;"/>
                </g>
                <path d="M-577.536,11.287L-526.361,-91.451L-306.127,-141.441L-183.413,-78.789C-183.413,-78.789 -567.915,9.362 -575.162,10.812L-577.536,11.287Z" style="fill:none;stroke:black;stroke-width:20px;"/>
                <path d="M-458.797,-394.172L-573.688,-454.992L-403.632,-493.775L-306.127,-429.047L-458.797,-394.172Z" style="fill:none;stroke:black;stroke-width:20px;"/>
                <path d="M-792.689,406.489C-792.689,406.489 -808.336,406.04 -818.752,405.533L-837.689,404.613C-837.689,404.613 -848.996,402.555 -858.689,400.87C-868.383,399.184 -876.506,397.525 -876.74,397.182C-876.974,396.84 -884.062,394.252 -892.49,391.433C-907.202,386.511 -908.219,386.041 -917.939,379.666C-923.508,376.014 -1015.62,316.166 -1015.42,310L-928.856,360.084L-918.71,366.693L-911.712,370.799L-903.327,374.792L-882.49,381.963C-868.037,385.91 -853.007,388.473 -837.61,390.154C-837.61,390.154 -823.383,391.662 -813.689,392.109C-800.219,392.729 -792.895,393.147 -792.895,393.147L-789.502,393.147C-788.161,392.941 -782.002,392.712 -775.814,392.481C-769.627,392.249 -760.547,391.718 -755.701,391.459L-745.443,390.595L-726.22,388.146C-722.734,387.645 -719.287,386.994 -715.82,386.317C-712.51,385.67 -709.18,385.003 -705.889,384.184C-701.639,383.229 -697.494,382.129 -693.502,380.819C-686.718,379.024 -674.27,374.02 -673.89,373.74C-669.941,371.979 -666.213,370.054 -662.746,367.939L-651.953,361.363L-644.334,346.705L-645.703,354.034C-645.703,354.034 -645.881,360.212 -649.056,366.034L-652.422,371.836C-653.924,375.626 -673.439,387.279 -673.439,387.279L-688.627,392.026C-696.98,394.637 -706.065,397.601 -706.065,397.601L-725.94,400.816C-736.871,402.584 -746.939,403.924 -746.939,403.924L-752.752,404.36C-755.949,404.6 -763.121,404.98 -768.689,405.203C-774.258,405.426 -781.768,405.807 -785.377,406.049L-792.689,406.489Z" style="stroke:black;stroke-width:20px;"/>
                <path d="M0.061,225.063C0.061,225.063 -10.102,225.481 -22.064,224.756C-34.027,224.03 -44.068,223.412 -44.377,223.383C-44.457,223.375 -45.085,223.279 -45.502,223.256C-46.223,223.215 -55.227,221.704 -65.509,219.899C-75.791,218.093 -84.397,216.321 -84.634,215.96C-84.871,215.599 -91.983,213.006 -100.439,210.198C-115.453,205.211 -116.052,204.932 -125.939,198.322C-131.508,194.598 -93.27,201.274 -65.629,206.267C-55.342,208.125 -49.14,208.728 -49.14,208.728L-42.84,209.449C-42.84,209.449 -32.714,210.351 -22.814,210.959C-12.914,211.567 -1.28,211.707 0.061,211.711L3.201,211.711C3.201,211.711 9.503,211.769 16.668,211.518C23.684,211.272 31.835,210.8 37.159,210.446C39.061,210.32 40.809,210.189 41.772,210.067L45.663,209.705C45.663,209.705 55.997,208.727 66.328,207.077C76.601,205.438 86.418,203.181 86.418,203.181C92.29,201.815 97.845,200.279 103.112,198.591C111.981,195.782 118.997,192.515 118.997,192.515C122.903,190.734 126.509,188.834 129.811,186.811L140.444,180.205L148.133,165.814L148.155,171.268C148.175,176.163 146.002,179.727 143.302,185.096C141.589,188.504 140.659,190.324 140.156,190.608C140.029,192.059 119.311,206.025 119.311,206.025L105.998,210.223C98.676,212.532 91.238,214.891 89.469,215.465L86.311,216.49L86.311,216.512L83.873,216.934C73.802,218.677 45.811,223.102 45.811,223.102L35.873,223.584C30.407,223.849 20.282,224.29 13.373,224.564L0.061,225.063Z" style="stroke:black;stroke-width:20px;"/>
                <g transform="matrix(1,0,0,1,-0.75,0)">
                    <path d="M-105.353,218.211L-176.697,176.324C-180.907,173.853 -184.067,169.927 -185.583,165.287L-208.024,96.58L-238.758,4.275C-240.546,-1.096 -239.975,-6.972 -237.186,-11.897C-234.398,-16.823 -229.653,-20.336 -224.128,-21.566C-224.128,-21.566 -170.117,-33.585 -159.108,-35.777L-153.412,-36.501L-145.547,-34.946L-138.98,-30.489L-138.977,-30.486L-136.468,-27.346L-134.293,-22.812C-134.234,-22.636 -133.965,-21.765 -133.555,-20.23C-131.319,-11.861 -119.857,32.211 -106.239,84.818C-91.204,142.9 -76.015,195.406 -76.015,195.406C-73.74,203.271 -76.488,211.729 -82.953,216.754C-89.417,221.779 -98.292,222.356 -105.353,218.211ZM-95.227,200.963C-95.227,200.963 -110.491,148.198 -125.601,89.83C-140.711,31.461 -153.162,-16.386 -153.27,-16.497C-153.553,-16.786 -219.782,-2.044 -219.782,-2.044L-189.031,90.316L-166.571,159.077L-95.227,200.963Z"/>
                </g>
                <path d="M-363.439,-352.975L-243.708,-202.373L-181.59,-78.994L-306.127,-141.441L-399.158,-326.366" style="fill:none;stroke:black;stroke-width:20px;stroke-linejoin:bevel;"/>
                <path d="M-886.903,377.996C-886.903,377.996 -816.075,102.5 -815.266,100.641C-814.387,98.624 -458.797,-394.172 -458.797,-394.172C-458.797,-394.172 -443.679,-397.705 -379.675,-412.289L-296.457,-431.251L-227.799,-361.569C-187.243,-323.881 -106.899,-249.218 -49.258,-195.652L55.545,-98.259L57.01,-93.277C57.816,-90.537 73.504,-36.786 91.872,26.169C110.239,89.125 125.967,141.156 125.967,141.156L-98.023,197.494C-98.023,197.494 -110.354,148.78 -125.512,90.205C-140.67,31.63 -153.161,-16.386 -153.269,-16.496C-153.378,-16.607 -157.988,-15.64 -163.515,-14.349C-169.042,-13.058 -174.479,-12.016 -175.597,-12.035C-177.827,-12.071 -605.638,85.528 -606.345,86.235C-606.984,86.874 -662.209,325.441 -661.852,326.019C-661.686,326.287 -711.391,337.895 -772.307,351.813C-833.224,365.731 -886.903,377.996 -886.903,377.996ZM-378.957,-33.953C-270.561,-58.722 -181.801,-79.058 -181.714,-79.146C-181.626,-79.234 -217.119,-132.966 -260.587,-198.55L-339.62,-317.795L-359.302,-330.449C-375.419,-340.809 -379.195,-342.945 -380.149,-342.239C-380.79,-341.765 -381.842,-341.195 -382.487,-340.973C-383.131,-340.751 -391.844,-331.564 -401.848,-320.557L-420.036,-300.545L-493.487,-156.17C-533.884,-76.764 -566.937,-11.369 -566.938,-10.848C-566.939,-10.327 -569.304,-5.18 -572.194,0.59C-575.085,6.359 -577.132,11.08 -576.745,11.08C-576.357,11.08 -487.353,-9.185 -378.957,-33.953Z" style="stroke:black;stroke-width:1px;"/>
            </g>
        </g>
    </g>
</svg>
