<?xml version="1.0" encoding="UTF-8" standalone="no"?>
<!DOCTYPE svg PUBLIC "-//W3C//DTD SVG 1.1//EN" "http://www.w3.org/Graphics/SVG/1.1/DTD/svg11.dtd">
<svg width="100%" height="100%" viewBox="0 0 348 349" version="1.1" xmlns="http://www.w3.org/2000/svg" xmlns:xlink="http://www.w3.org/1999/xlink" xml:space="preserve" xmlns:serif="http://www.serif.com/" style="fill-rule:evenodd;clip-rule:evenodd;stroke-linejoin:round;stroke-miterlimit:2;">
    <path id="path1" d="M167.51,3L325.52,3.5L325.52,291.518L292.018,310.02L162.5,308.924L162.51,309.02L119.508,341.521L25.002,341.521L53.504,78.004L115.607,46.207L115.605,17.502L167.51,3ZM309.99,6.373L171.674,6.393L140.572,15.021L284.988,14.873L309.99,6.373ZM116.008,50.287L67.574,75.494L102.006,75.504L127.508,62.004L115.908,62.014L116.008,50.287ZM322.52,6.5L291.518,17.502L295.518,304.018L322.02,289.018L322.52,6.5ZM131.508,66.504L103.506,81.506L121.008,336.02L158.01,308.02L131.508,66.504ZM119.582,18.458L119.569,58.449L134.476,58.476L161.024,304.65L292.491,306.385L287.77,19.011L119.582,18.458Z"/>
    <path d="M119.594,18.458L287.77,19.011L292.491,306.385L161.024,304.65L134.476,58.476L119.582,58.449L119.594,18.458Z" style="fill-opacity:0.2;"/>
</svg>
