<?xml version="1.0" encoding="UTF-8" standalone="no"?>
<!DOCTYPE svg PUBLIC "-//W3C//DTD SVG 1.1//EN" "http://www.w3.org/Graphics/SVG/1.1/DTD/svg11.dtd">
<svg width="100%" height="100%" viewBox="0 0 1900 1900" version="1.1" xmlns="http://www.w3.org/2000/svg" xmlns:xlink="http://www.w3.org/1999/xlink" xml:space="preserve" xmlns:serif="http://www.serif.com/" style="fill-rule:evenodd;clip-rule:evenodd;stroke-linecap:round;stroke-linejoin:round;stroke-miterlimit:1.5;">
    <g transform="matrix(1.02703,0,0,1.02703,0,-1.49214e-13)">
        <rect x="0" y="0" width="1850" height="1850" style="fill:white;"/>
    </g>
    <g transform="matrix(1,0,0,1.01333,20,70.9333)">
        <path d="M884.659,1560.91L942.952,1543.93L1120.51,1628.58" style="fill:none;stroke:black;stroke-width:26.49px;"/>
    </g>
    <g transform="matrix(1,0,0,1.01333,20,70.9333)">
        <path d="M1098.31,1058.75L942.952,1543.93" style="fill:none;stroke:black;stroke-width:26.49px;"/>
    </g>
    <g transform="matrix(1,0,0,1.01333,42.3968,62.2874)">
        <path d="M1230.56,1148.82L1075.91,1067.29" style="fill:none;stroke:black;stroke-width:26.49px;"/>
    </g>
    <g transform="matrix(1,0,0,1.01333,42.3968,62.2874)">
        <path d="M1674.83,1018.55L1527.17,920.891L1075.91,1067.29" style="fill:none;stroke:black;stroke-width:26.49px;"/>
    </g>
    <g transform="matrix(1,0,0,1.01333,20,70.9333)">
        <path d="M150.266,269.822L150.266,1184.18" style="fill:none;stroke:black;stroke-width:26.49px;"/>
    </g>
    <g transform="matrix(1,0,0,1.01333,20,70.9333)">
        <path d="M1724.35,302.149L1724.35,1295.73" style="fill:none;stroke:black;stroke-width:26.49px;"/>
    </g>
    <g transform="matrix(1,0,0,1.01333,20,70.9333)">
        <path d="M884.659,1560.91L633.647,1463.25L633.647,1068.12" style="fill:none;stroke:black;stroke-width:26.49px;"/>
    </g>
    <g transform="matrix(1,0,0,1.01333,20,70.9333)">
        <path d="M32.408,1504.48L229.402,1579.89L377.029,1142.08L174.13,1063.82L32.408,1504.48" style="stroke:black;stroke-width:26.49px;"/>
    </g>
    <g transform="matrix(1,0,0,1.01333,20,70.9333)">
        <path d="M229.402,1579.89L633.647,1463.25" style="fill:none;stroke:black;stroke-width:26.49px;"/>
    </g>
    <g transform="matrix(1,0,0,1.01333,20,70.9333)">
        <path d="M633.707,1068.1L431.831,982.742L174.13,1063.82L377.029,1142.08L633.707,1068.1Z" style="stroke:black;stroke-width:26.49px;"/>
    </g>
    <g transform="matrix(1,0,0,1.01333,20,70.9333)">
        <path d="M150.266,269.822L986.544,19.429" style="fill:none;stroke:black;stroke-width:26.49px;"/>
    </g>
    <g transform="matrix(1,0,0,1.01333,20,70.9333)">
        <path d="M986.544,19.429L1724.35,302.149" style="fill:none;stroke:black;stroke-width:26.49px;"/>
    </g>
    <g transform="matrix(1,0,0,1.01333,20,70.9333)">
        <path d="M1724.35,302.149L887.909,548.248" style="fill:none;stroke:black;stroke-width:26.49px;"/>
    </g>
    <g transform="matrix(1,0,0,1.01333,20,70.9333)">
        <path d="M887.909,548.248L150.266,269.822" style="fill:none;stroke:black;stroke-width:26.49px;"/>
    </g>
    <g transform="matrix(1,0,0,1.01333,20,70.9333)">
        <path d="M887.909,548.248L884.659,1560.91" style="fill:none;stroke:black;stroke-width:26.49px;"/>
    </g>
    <g transform="matrix(1,0,0,1.01333,100.747,120.875)">
        <path d="M1759.99,1368.11L1039.76,1579.3L1172.21,1091L1616.48,960.734L1759.99,1368.11" style="stroke:black;stroke-width:26.49px;"/>
    </g>
</svg>
