<?xml version="1.0" encoding="UTF-8" standalone="no"?>
<!DOCTYPE svg PUBLIC "-//W3C//DTD SVG 1.1//EN" "http://www.w3.org/Graphics/SVG/1.1/DTD/svg11.dtd">
<svg width="100%" height="100%" viewBox="0 0 1509 1509" version="1.1" xmlns="http://www.w3.org/2000/svg" xmlns:xlink="http://www.w3.org/1999/xlink" xml:space="preserve" xmlns:serif="http://www.serif.com/" style="fill-rule:evenodd;clip-rule:evenodd;stroke-linejoin:round;stroke-miterlimit:2;">
    <g id="Layer-1" serif:id="Layer 1">
        <g id="g1110">
            <path d="M191.861,913.106L114.254,876.377L596.315,215.376L667.68,253.154L191.861,913.106Z" style="fill:none;stroke:black;stroke-width:13.33px;"/>
            <path d="M77.99,1274.06C63.248,1267.22 14.515,1243.54 14.515,1243.54L114.254,876.377L191.861,913.106L96.872,1282.71C96.872,1282.71 87.89,1278.65 77.99,1274.06Z" style="fill:none;stroke:black;stroke-width:13.33px;"/>
            <path d="M191.99,1301.41C129.771,1297.62 82.752,1286.07 54.49,1267.66L40.935,1258.83L60.355,1265.63C60.355,1265.63 69.063,1269.98 78.931,1274.5L96.872,1282.71L246.931,1248.44C329.463,1229.59 397.221,1213.83 397.503,1213.4C399.632,1210.23 412.034,1222.29 416.1,1231.49L420.298,1240.99L415.218,1250.76L410.139,1260.53L395.565,1269.4C366.421,1287.13 315.517,1298.99 257.99,1301.44C244.24,1302.03 230.515,1302.67 227.49,1302.88C224.465,1303.08 208.49,1302.42 191.99,1301.41Z" style="fill:none;stroke:black;stroke-width:12px;"/>
            <path d="M1244.49,1059.81C1187.73,1056.4 1161.99,1044.21 1161.99,1044.21L1298.84,1008.07C1381.12,989.257 1447.37,966.895 1447.37,966.895C1447.37,966.895 1447.98,966.733 1458.16,973.726L1468.73,980.99L1472.82,990.396L1476.92,999.803L1471.79,1009.4L1466.67,1018.99L1452.63,1027.7C1412.43,1052.62 1331.83,1065.06 1244.49,1059.81Z" style="fill:none;stroke:black;stroke-width:13.33px;"/>
            <path d="M509.361,793.766L561.026,689.486L938.355,600.038L1034.86,673.666C1034.86,673.666 522.189,791.2 512.527,793.133L509.361,793.766Z" style="fill:none;stroke:black;stroke-width:13.33px;"/>
            <path d="M667.68,253.154L596.315,215.376L809.155,158.95L877.957,204.624L667.68,253.154Z" style="fill:none;stroke:black;stroke-width:13.33px;"/>
            <path d="M222.49,1320.7C222.49,1320.7 201.628,1320.1 187.74,1319.43L162.49,1318.2C162.49,1318.2 147.415,1315.46 134.49,1313.21C121.565,1310.96 110.735,1308.75 110.423,1308.29C110.11,1307.84 100.661,1304.39 89.423,1300.63C69.807,1294.07 68.45,1293.44 55.49,1284.94C48.065,1280.07 8.31,1253.31 8.586,1245.09L40.935,1258.83L54.463,1267.64L63.793,1273.12L74.974,1278.44L102.756,1288C122.027,1293.26 142.067,1296.68 162.596,1298.92C162.596,1298.92 181.565,1300.93 194.49,1301.53C212.451,1302.36 222.216,1302.91 222.216,1302.91L226.74,1302.91C228.527,1302.64 236.74,1302.33 244.99,1302.03C253.24,1301.72 265.346,1301.01 271.809,1300.66L285.485,1299.51L311.115,1296.25C315.764,1295.58 320.36,1294.71 324.982,1293.81C329.395,1292.94 333.837,1292.06 338.224,1290.96C343.891,1289.69 349.417,1288.22 354.74,1286.48C363.786,1284.08 380.383,1277.41 380.889,1277.04C386.155,1274.69 391.125,1272.12 395.748,1269.3L410.139,1260.53L420.298,1240.99L418.472,1250.76C418.472,1250.76 418.235,1259 414.001,1266.76L409.514,1274.5C407.511,1279.55 381.49,1295.09 381.49,1295.09L361.24,1301.42C350.102,1304.9 337.99,1308.85 337.99,1308.85L311.49,1313.14C296.915,1315.5 283.49,1317.28 283.49,1317.28L275.74,1317.86C271.478,1318.18 261.915,1318.69 254.49,1318.99C247.065,1319.29 237.053,1319.79 232.24,1320.12L222.49,1320.7Z"/>
            <path d="M1279.49,1078.8C1279.49,1078.8 1265.94,1079.36 1249.99,1078.39C1234.04,1077.42 1220.65,1076.6 1220.24,1076.56C1220.13,1076.55 1219.3,1076.42 1218.74,1076.39C1217.78,1076.34 1205.77,1074.32 1192.06,1071.92C1178.36,1069.51 1166.88,1067.14 1166.56,1066.66C1166.25,1066.18 1156.77,1062.73 1145.49,1058.98C1125.47,1052.33 1124.67,1051.96 1111.49,1043.15C1104.07,1038.18 1097.6,1034.37 1097.6,1034.37C1097.6,1034.37 1096.73,1014.66 1096.8,1006.8L1096.3,996.366L1101.09,1006.93L1104.96,1015.53L1110.96,1026.06C1129.96,1038.02 1155.05,1047.08 1191.9,1053.74C1205.62,1056.22 1213.89,1057.02 1213.89,1057.02L1222.29,1057.98C1222.29,1057.98 1235.79,1059.18 1248.99,1060C1262.19,1060.81 1277.7,1060.99 1279.49,1061L1283.68,1061C1283.68,1061 1292.08,1061.08 1301.63,1060.74C1310.99,1060.41 1321.86,1059.78 1328.95,1059.31C1331.49,1059.14 1333.82,1058.97 1335.11,1058.81L1340.29,1058.32C1340.29,1058.32 1354.07,1057.02 1367.85,1054.82C1381.54,1052.63 1394.63,1049.62 1394.63,1049.62C1402.46,1047.8 1409.87,1045.76 1416.89,1043.51C1428.72,1039.76 1438.07,1035.4 1438.07,1035.4C1443.28,1033.03 1448.09,1030.5 1452.49,1027.8L1466.67,1018.99L1476.92,999.803L1476.95,1007.08C1476.98,1013.6 1474.08,1018.35 1470.48,1025.51C1468.19,1030.06 1466.95,1032.48 1466.28,1032.86C1466.12,1034.8 1438.49,1053.42 1438.49,1053.42L1420.74,1059.02C1410.98,1062.09 1401.06,1065.24 1398.7,1066L1394.49,1067.37L1394.49,1067.4L1391.24,1067.96C1377.81,1070.29 1340.49,1076.19 1340.49,1076.19L1327.24,1076.83C1319.95,1077.18 1306.45,1077.77 1297.24,1078.14L1279.49,1078.8Z"/>
            <path d="M1120.69,1041.91L1107.15,1027.33C1105.93,1026.02 1105.02,1024.45 1104.48,1022.73L1065.72,898.28C1065.66,898.095 1065.61,897.909 1065.56,897.721C1048.79,832.993 1034.95,778.669 1032.55,768.246L1031.88,763.969L1032.85,759.041L1035.4,755.275L1038.46,753.047L1041.19,751.981C1045.71,750.594 1066.42,745.755 1071.17,744.969L1073.9,744.705L1077,745.086L1079.75,746.159L1082.62,748.326L1082.62,748.328L1084.13,750.212L1085.44,752.945C1085.5,753.12 1085.76,753.995 1086.17,755.529C1089.14,766.679 1104.41,825.395 1122.56,895.483C1142.69,973.253 1160.3,1038.93 1160.3,1038.93C1161.48,1043.31 1160.08,1047.98 1156.7,1051C1153.32,1054.02 1148.52,1054.87 1144.3,1053.2C1144.3,1053.2 1134.95,1049.51 1124.43,1044.62C1123.02,1043.97 1121.75,1043.05 1120.69,1041.91ZM1129.48,1033.74C1139.66,1038.47 1148.71,1042.04 1148.71,1042.04C1148.71,1042.04 1131.09,976.315 1110.94,898.49C1090.8,820.665 1074.19,756.869 1074.05,756.721C1073.67,756.336 1044.5,763.144 1043.89,763.761C1043.6,764.043 1058.58,822.97 1077.18,894.711L1115.94,1019.16L1129.48,1033.74Z"/>
            <path d="M794.824,308.084L954.465,508.886L1037.29,673.392L938.355,600.038L747.199,343.562" style="fill:none;stroke:black;stroke-width:13.33px;stroke-linejoin:bevel;"/>
            <path d="M96.872,1282.71C96.872,1282.71 191.309,915.383 192.388,912.905C193.56,910.216 667.68,253.154 667.68,253.154C667.68,253.154 687.838,248.444 773.175,228.999L884.133,203.716L975.678,296.625C1029.75,346.876 1136.88,446.426 1213.73,517.847L1353.47,647.705L1355.42,654.347C1356.5,658.001 1377.41,729.669 1401.9,813.609C1426.39,897.55 1447.37,966.925 1447.37,966.925L1148.71,1042.04C1148.71,1042.04 1132.27,977.09 1112.06,898.99C1091.85,820.89 1075.19,756.87 1075.05,756.722C1074.91,756.575 1068.76,757.863 1061.39,759.585C1054.02,761.307 1046.77,762.695 1045.28,762.671C1042.31,762.622 471.892,892.755 470.949,893.697C470.098,894.549 396.464,1212.64 396.94,1213.41C397.161,1213.77 330.888,1229.24 249.666,1247.8C168.444,1266.36 96.872,1282.71 96.872,1282.71ZM774.134,733.446C918.662,700.421 1037.01,673.306 1037.12,673.189C1037.24,673.072 989.917,601.429 931.96,513.983L826.582,354.99L800.34,338.119C778.851,324.304 773.816,321.456 772.543,322.398C771.689,323.031 770.287,323.79 769.427,324.087C768.568,324.383 756.951,336.632 743.613,351.308L719.361,377.99L621.427,570.49C567.564,676.365 523.493,763.559 523.492,764.253C523.491,764.948 520.337,771.811 516.483,779.503C512.63,787.196 509.899,793.49 510.416,793.49C510.933,793.49 629.606,766.47 774.134,733.446Z" style="stroke:black;stroke-width:1.33px;"/>
        </g>
    </g>
</svg>
